<svg xmlns="http://www.w3.org/2000/svg" viewBox="0 0 200 200">
  <defs>
    <linearGradient id="grad1" x1="0%" y1="0%" x2="100%" y2="100%">
      <stop offset="0%" style="stop-color:#3498db;stop-opacity:1" />
      <stop offset="100%" style="stop-color:#2ecc71;stop-opacity:1" />
    </linearGradient>
  </defs>
  
  <path d="M100 20 C60 20 20 70 20 120 C20 170 60 180 100 180 C140 180 180 170 180 120 C180 70 140 20 100 20 Z" fill="url(#grad1)" />
  
  <path d="M100 40 C70 40 40 80 40 120 C40 160 70 160 100 160 C130 160 160 160 160 120 C160 80 130 40 100 40 Z" fill="#ffffff" fill-opacity="0.3" />
  
  <path d="M85 80 C75 90 75 110 85 120 C95 130 115 130 125 120 C135 110 135 90 125 80 C115 70 95 70 85 80 Z" fill="#ffffff" fill-opacity="0.5" />
</svg>